<?xml version="1.0" standalone="no"?><!DOCTYPE svg PUBLIC "-//W3C//DTD SVG 1.1//EN" "http://www.w3.org/Graphics/SVG/1.1/DTD/svg11.dtd"><svg t="1725375729821" class="icon" viewBox="0 0 1024 1024" version="1.1" xmlns="http://www.w3.org/2000/svg" p-id="19739" xmlns:xlink="http://www.w3.org/1999/xlink" width="200" height="200"><path d="M219.424 18.304h530.272l201.152 219.424v768H219.424V18.304z" fill="#FFFFFF" p-id="19740"></path><path d="M733.696 253.728V50.304H251.424v923.424h667.424v-720h-185.152z m217.152-16v768H219.424V18.304h530.272l201.152 219.424z m-58.08-16l-127.04-138.624v138.624h127.04z" fill="#465F78" p-id="19741"></path><path d="M73.152 288a32 32 0 0 1 32-32h448a32 32 0 0 1 32 32v448a32 32 0 0 1-32 32h-448a32 32 0 0 1-32-32V288zM640 416h224v37.344h-224V416zM640 509.344h224v37.312h-224v-37.312zM640 602.656h224V640h-224v-37.344z" fill="#317BFF" p-id="19742"></path><path d="M221.952 640l-56.256-235.616H214.4l35.52 161.856 43.072-161.856h56.576l41.28 164.576 36.16-164.576h47.904L417.696 640h-50.464l-46.912-176.16L273.536 640H221.952z" fill="#FFFFFF" p-id="19743"></path></svg>